<?xml version="1.0" standalone="no"?>
<!DOCTYPE svg PUBLIC "-//W3C//DTD SVG 20010904//EN"
 "http://www.w3.org/TR/2001/REC-SVG-20010904/DTD/svg10.dtd">
<svg
  version="1.0"
  xmlns="http://www.w3.org/2000/svg"
  width="410.000000pt"
  height="392.000000pt"
  viewBox="0 0 410.000000 392.000000"
  preserveAspectRatio="xMidYMid meet"
>
  <g
    transform="translate(0.000000,392.000000) scale(0.100000,-0.100000)"
    fill="#000000"
    stroke="none"
  >
    <path
      d="M2448 2759 l-247 -288 109 -192 109 -192 -166 -174 c-91 -95 -169
-173 -173 -173 -7 0 -275 270 -316 320 l-25 29 106 188 c91 160 105 191 95
206 -20 32 -472 557 -480 557 -4 0 -40 -84 -80 -187 -40 -104 -106 -271 -146
-373 l-73 -185 135 -130 135 -130 -114 -195 c-63 -107 -118 -194 -123 -193 -5
2 -88 68 -185 148 l-176 145 59 162 c36 99 56 168 51 175 -9 14 -546 393 -551
388 -1 -1 41 -128 94 -281 52 -153 143 -416 201 -584 173 -504 203 -592 230
-668 l26 -72 1136 0 1137 0 21 63 c21 62 142 413 333 967 173 501 199 581 187
573 -30 -17 -514 -358 -533 -375 l-21 -19 59 -160 c32 -89 58 -165 56 -169 -4
-10 -359 -303 -362 -298 -7 8 -226 387 -226 391 0 2 59 62 132 134 l131 131
-83 213 c-46 118 -110 284 -143 369 -33 85 -62 158 -66 161 -3 4 -117 -123
-253 -282z"
    />
    <path
      d="M930 855 l0 -105 1148 2 1147 3 3 103 3 102 -1151 0 -1150 0 0 -105z"
    />
  </g>
</svg>
